<?xml version="1.0" encoding="utf-8"?>
<!-- Generator: Adobe Illustrator 16.0.0, SVG Export Plug-In . SVG Version: 6.00 Build 0)  -->
<!DOCTYPE svg PUBLIC "-//W3C//DTD SVG 1.0//EN" "http://www.w3.org/TR/2001/REC-SVG-20010904/DTD/svg10.dtd">
<svg version="1.0" id="Layer_1" xmlns="http://www.w3.org/2000/svg" xmlns:xlink="http://www.w3.org/1999/xlink" x="0px" y="0px"
	 width="384.6px" height="384.6px" viewBox="0 0 384.6 384.6" enable-background="new 0 0 384.6 384.6" xml:space="preserve">
<g>
	<path fill="#34A0D9" d="M325.9,117.2c0-1.3-0.7-2.4-1.8-3.1l-65-37.6c0,0-0.1,0-0.1,0L194.1,39c-1.1-0.6-2.4-0.6-3.5,0l-65.1,37.5
		c0,0-0.1,0-0.1,0.1l-65,37.5c-1.1,0.6-1.8,1.8-1.8,3.1l0,75.1c0,0,0,0.1,0,0.1l0,75c0,1.3,0.7,2.4,1.8,3.1l65,37.6c0,0,0.1,0,0.1,0
		l65,37.5c0.5,0.3,1.2,0.5,1.8,0.5c0.6,0,1.2-0.2,1.8-0.5l65.1-37.5c0,0,0,0,0.1-0.1l65-37.5c1.1-0.6,1.8-1.8,1.8-3.1l0-75.1
		c0,0,0-0.1,0-0.1L325.9,117.2z M195.8,265.3l0-66.9l58,33.5l0,66.9L195.8,265.3z M188.7,119.2l0,61.2l0,5.7l-57.9-33.5l0-66.9
		L188.7,119.2z M253.8,152.7l-39.7,22.9l-18.3,10.5l0-66.9l57.9-33.5L253.8,152.7z M127.2,158.8l50,28.9l7.9,4.6l-47,27.1l-10.9,6.3
		l-57.9-33.5L127.2,158.8z M130.8,231.9l8.6-5l49.3-28.5l0,66.9l-57.9,33.5L130.8,231.9z M257.3,225.7l-57.9-33.5l18.9-10.9
		l39.1-22.6l57.9,33.5L257.3,225.7z M318.8,186.1l-58-33.5l0-66.9l58,33.5L318.8,186.1z M192.3,46.2l57.9,33.5l-58,33.5l-57.9-33.5
		L192.3,46.2z M123.7,85.8l0,66.9l-58,33.4l0-66.9L123.7,85.8z M65.7,198.4l58,33.5l0,66.9l-58-33.5L65.7,198.4z M192.3,338.4
		l-57.9-33.5l58-33.5l57.9,33.5L192.3,338.4z M260.9,298.8l0-66.9l58-33.4l0,66.9L260.9,298.8z"/>
</g>
</svg>
